<svg xmlns="http://www.w3.org/2000/svg" viewBox="0 0 64 80">
    <path d="M14,35.569c6.623,0 12,5.377 12,12c0,6.623 -5.377,12 -12,12c-6.623,0 -12,-5.377 -12,-12c0,-6.623 5.377,-12 12,-12Zm36,0c6.623,0 12,5.377 12,12c0,6.623 -5.377,12 -12,12c-6.623,0 -12,-5.377 -12,-12c0,-6.623 5.377,-12 12,-12Zm-28.543,12c0,4.182 -3.39,7.572 -7.572,7.572c-4.179,0 -7.572,-3.393 -7.572,-7.572c0,-4.182 3.39,-7.572 7.572,-7.572l0,-2.524c-5.576,0 -10.096,4.52 -10.096,10.096c0,5.573 4.523,10.096 10.096,10.096c5.576,0 10.096,-4.52 10.096,-10.096l-2.524,0Zm36,0c0,4.182 -3.39,7.572 -7.572,7.572c-4.179,0 -7.572,-3.393 -7.572,-7.572c0,-4.182 3.39,-7.572 7.572,-7.572l0,-2.524c-5.576,0 -10.096,4.52 -10.096,10.096c0,5.573 4.523,10.096 10.096,10.096c5.576,0 10.096,-4.52 10.096,-10.096l-2.524,0Zm-34.137,-16.768l15.266,4.09c1.066,0.286 1.7,1.384 1.414,2.45c-0.033,0.124 -0.078,0.243 -0.132,0.355c-0.037,0.097 -0.082,0.192 -0.136,0.285l-9,15.588c-0.552,0.956 -1.776,1.284 -2.732,0.732c-0.956,-0.552 -1.284,-1.776 -0.732,-2.732l7.785,-13.483l-15.179,-4.067c-0.987,-0.265 -1.604,-1.226 -1.462,-2.214c0.005,-0.33 0.091,-0.662 0.268,-0.968l2.383,-4.128l6.928,-4l-4.671,8.092Zm6.619,-11.465l-0.948,1.641l-6.928,4l5.705,-9.881c0.465,-0.805 1.406,-1.165 2.263,-0.929c0.337,0.086 0.656,0.26 0.919,0.524l12.378,12.378l6.672,0c1.104,0 2,0.897 2,2c0,1.104 -0.896,2 -2,2l-7.5,0c0,0 0,0 0,0l-0.006,0l-0.006,0l0,0c-0.205,-0.001 -0.402,-0.033 -0.588,-0.091c-0.298,-0.094 -0.578,-0.258 -0.814,-0.494l-11.147,-11.148Zm-3.435,-3.495c0.131,-0.228 0.167,-0.499 0.099,-0.754c-0.068,-0.254 -0.235,-0.471 -0.463,-0.603c0,0 -0.001,0 -0.001,0c-1.438,-0.83 -3.276,-0.338 -4.106,1.1c-1.983,3.435 -5.39,9.335 -6.827,11.824c-0.37,0.641 -0.15,1.462 0.491,1.832c0.368,0.212 0.774,0.447 1.142,0.659c0.641,0.37 1.461,0.15 1.832,-0.491c1.729,-2.996 6.314,-10.937 7.833,-13.567Zm12.184,-8.272c0.202,0.533 0.312,1.111 0.312,1.714c0,2.678 -2.174,4.852 -4.852,4.852c-2.678,0 -4.852,-2.174 -4.852,-4.852c0,-2.678 2.174,-4.852 4.852,-4.852c0.786,0 1.528,0.187 2.185,0.519l5.595,2.198c0.098,0.038 0.154,0.141 0.135,0.244c-0.02,0.103 -0.11,0.177 -0.215,0.177l-3.16,0Z"/>
</svg>