<svg xmlns="http://www.w3.org/2000/svg" viewBox="0 0 100 105">
    <switch>
        <path d="M93.2,6.9H6.8c-2.4,0-4.3,1.9-4.3,4.3v61.7c0,2.3,1.9,4.3,4.3,4.3h34.8v7.8h-7.7c-1.2,0-2.1,1-2.1,2.1v4     c0,1.2,1,2.1,2.1,2.1h32.3c1.2,0,2.1-1,2.1-2.1v-4c0-1.2-1-2.1-2.1-2.1h-7.7v-7.8h34.8c2.4,0,4.3-1.9,4.3-4.3V11.2     C97.5,8.8,95.6,6.9,93.2,6.9z M50,72.5c-1.6,0-3-1.3-3-3c0-1.6,1.3-3,3-3c1.6,0,3,1.3,3,3C53,71.2,51.6,72.5,50,72.5z M89.8,62.2     H10.2V14.6h79.6V62.2z"/>
        <path d="M33.1,52.1c0.5,0.5,1.4,0.5,1.9,0l3.4-3.4c0.5-0.5,0.5-1.4,0-1.9l-8.4-8.4l8.4-8.4c0.5-0.5,0.5-1.4,0-1.9l-3.4-3.4     c-0.5-0.5-1.4-0.5-1.9,0L20.3,37.4c-0.5,0.5-0.5,1.4,0,1.9L33.1,52.1z"/>
        <path d="M61.7,48.7l3.4,3.4c0.5,0.5,1.4,0.5,1.9,0l12.8-12.8c0.5-0.5,0.5-1.4,0-1.9L66.9,24.7c-0.5-0.5-1.4-0.5-1.9,0l-3.4,3.4     c-0.5,0.5-0.5,1.4,0,1.9l8.4,8.4l-8.4,8.4C61.2,47.3,61.2,48.2,61.7,48.7z"/>
        <path d="M43.1,53.9h4.1c0.6,0,1.1-0.4,1.2-0.9l9.8-28.4c0.3-0.9-0.3-1.8-1.2-1.8h-4.1c-0.6,0-1.1,0.4-1.2,0.9l-9.8,28.4     C41.5,53,42.2,53.9,43.1,53.9z"/>
    </switch>
</svg>