<svg xmlns="http://www.w3.org/2000/svg" viewBox="0 0 100 105">
    <g transform="translate(0,-952.36218)">
        <path style="text-indent:0;text-transform:none;direction:ltr;block-progression:tb;baseline-shift:baseline;color:#000000;enable-background:accumulate;" d="m 61.728788,962.37201 c -1.138782,0.0891 -2.191504,0.88731 -2.583965,1.95929 -0.392461,1.07199 -0.10376,2.36065 0.708633,3.16308 0.987199,1.01179 1.15088,1.46176 1.156455,2.90476 0.0025,0.63712 -0.647196,1.77291 -1.906588,3.46697 -1.259392,1.69406 -3.094298,3.95075 -3.094298,7.21504 0,5.41167 4.125731,8.62057 4.125731,8.62057 1.196765,1.14524 3.37325,1.0047 4.412585,-0.28491 1.039334,-1.28962 0.712846,-3.44458 -0.661921,-4.36895 0,0 -1.875332,-1.66216 -1.875332,-3.96671 0,-0.79754 0.661813,-1.94874 1.906587,-3.62314 1.244774,-1.6744 3.106797,-3.85798 3.094298,-7.09011 -0.0098,-2.53488 -0.945138,-5.11244 -2.844254,-7.05887 -0.616227,-0.65661 -1.540228,-1.01175 -2.437931,-0.93702 z m -12.095891,2.99846 c -1.188168,0.12431 -2.25679,1.02649 -2.577913,2.17639 -0.321124,1.1499 0.125593,2.47468 1.077647,3.19585 0.633965,0.5032 0.92157,1.42003 0.875155,2.49872 -0.0235,0.54616 -0.499893,1.4235 -1.500265,2.84229 -1.000372,1.41879 -2.500443,3.4571 -2.500443,6.30926 0,4.53123 3.094298,7.27751 3.094298,7.27751 1.172342,1.19235 3.381394,1.09972 4.449666,-0.18657 1.068273,-1.28629 0.752287,-3.47308 -0.636491,-4.40482 0,0 -0.906411,-0.55336 -0.906411,-2.68612 0,-0.6558 0.442455,-1.47503 1.406499,-2.84229 0.964045,-1.36727 2.474052,-3.23575 2.594209,-6.02816 0.101411,-2.35675 -0.540773,-5.44452 -3.125553,-7.49615 -0.62164,-0.50757 -1.453172,-0.74993 -2.250398,-0.65591 z m -10.970692,4.99743 c -1.293757,0.11991 -2.443762,1.17336 -2.675571,2.45094 -0.231809,1.27758 0.474869,2.66746 1.644139,3.23364 0.589098,0.30638 0.374044,0.12864 0.375066,0.34358 -0.0019,-0.40018 -0.209205,0.31048 -1.218966,1.43676 -1.00976,1.12628 -2.781742,2.68557 -2.781742,5.52841 0,4.08271 3.156809,6.40296 3.156809,6.40296 1.243743,0.96515 3.254181,0.71229 4.219822,-0.53072 0.96564,-1.24302 0.712339,-3.25204 -0.53167,-4.21684 0,0 -0.804164,-0.78628 -0.843899,-1.59293 0.06272,0.0275 0.380901,-0.6233 1.250221,-1.59293 0.993509,-1.10816 2.764107,-2.60352 2.750487,-5.46595 -0.01102,-2.31682 -1.568087,-4.58326 -3.625642,-5.65334 -0.522164,-0.28089 -1.128946,-0.40217 -1.719054,-0.34358 z m -13.658667,22.01994 c -2.307671,0 -4.401075,0.56321 -6.063574,1.71787 -1.662498,1.15466 -2.93802,3.07889 -2.93802,5.27854 l 0,2.99845 c 0,7.1949 2.996219,14.7818 7.032495,20.8643 1.243959,1.8746 2.601894,3.6072 4.031964,5.1224 -6.447926,0 -12.954576,0 -19.3784301,0 -1.8290929,0.1838 -3.1604927,2.3458 -2.5004425,4.0604 2.2299072,5.7532 7.8955556,9.9324 14.8151226,9.9324 l 58.010267,0 c 6.919567,0 12.585215,-4.1792 14.815122,-9.9324 0.685192,-1.8088 -0.877616,-4.0646 -2.812998,-4.0604 l -19.065874,0 c 0.04994,-0.053 0.106538,-0.1028 0.156277,-0.1562 0.225139,-0.042 0.459265,-0.092 0.750133,-0.1562 0.726008,-0.1597 1.669701,-0.3695 2.781743,-0.6871 2.224083,-0.6353 5.101168,-1.6216 8.001416,-2.9985 2.900247,-1.3769 5.820332,-3.1403 8.188949,-5.5596 2.368617,-2.4194 4.188241,-5.6395 4.188241,-9.4327 l 0,-0.9995 c 0,-1.875 -0.502385,-4.0021 -1.969098,-5.8407 -1.466714,-1.8384 -4.025999,-3.15465 -7.032495,-3.15465 -0.02083,-2.2e-4 -0.04168,-2.2e-4 -0.06251,0 -1.6619,0.0337 -2.754843,0.19255 -3.938197,0.43728 l 0,-0.43728 c 0,-2.19965 -1.275522,-4.12388 -2.93802,-5.27854 -1.662498,-1.15466 -3.755903,-1.71787 -6.063573,-1.71787 z m 0,5.99692 48.008497,0 c 1.272654,0 2.182514,0.34828 2.625465,0.65592 0.44295,0.30764 0.375066,0.39651 0.375066,0.34357 l 0,2.99845 c 0,5.4441 -2.54829,12.3032 -6.032318,17.5535 -1.742014,2.6251 -3.699813,4.8682 -5.532229,6.3405 -1.832416,1.4723 -3.489037,2.0927 -4.438285,2.0927 l -22.003895,0 c -0.949247,0 -2.605868,-0.6204 -4.438286,-2.0927 -1.832417,-1.4723 -3.790214,-3.7154 -5.532229,-6.3405 -3.484028,-5.2503 -6.032317,-12.1094 -6.032317,-17.5535 l 0,-2.99845 c 0,0.053 -0.06788,-0.0359 0.375066,-0.34357 0.442951,-0.30764 1.35281,-0.65592 2.625465,-0.65592 z m 1.844076,2.93604 c -1.677048,0.084 -3.077284,1.8098 -2.812998,3.4669 0.69483,4.961 3.055785,10.0447 6.657429,14.4613 0.928183,1.382 3.101593,1.7039 4.390993,0.6504 1.289398,-1.0534 1.40563,-3.246 0.234825,-4.4297 -2.964857,-3.6358 -4.834582,-7.8833 -5.344696,-11.5253 -0.185352,-1.4837 -1.631066,-2.6973 -3.125553,-2.6236 z m 59.166722,4.0604 c 0.02859,0 0.03469,-3e-4 0.06251,0 1.398798,0.015 1.874036,0.3948 2.281654,0.9058 0.415726,0.5212 0.656366,1.4129 0.656366,2.0926 l 0,0.9995 c 0,1.957 -0.846628,3.5901 -2.469187,5.2473 -1.622559,1.6573 -4.008067,3.158 -6.50115,4.3415 -1.109454,0.5267 -2.227714,1.0014 -3.313087,1.4056 2.501899,-4.4212 4.385933,-9.3859 5.032141,-14.3364 1.803543,-0.4647 2.277022,-0.6129 4.250752,-0.6559 z m -72.106512,28.9851 c 23.399974,0 46.79995,0 70.199925,0 -1.602136,1.219 -3.628034,1.999 -6.094829,1.999 l -58.010267,0 c -2.466795,0 -4.492693,-0.78 -6.094829,-1.999 z" fill="#000000" fill-opacity="1" stroke="none" marker="none" visibility="visible" display="inline" overflow="visible"/>
    </g>
</svg>