<svg xmlns="http://www.w3.org/2000/svg" viewBox="0 0 512 600">
    <path d="M109.257,305.176a46.625,46.625,0,0,0-36.508,54.911L85.921,425.52a46.625,46.625,0,0,0,54.912,36.508l1.345-.27L110.6,304.9Z"/>
    <path d="M165.352,477.989a12,12,0,0,0,18.408-12.362l-36.312-180.38h0a12.013,12.013,0,0,0-11.74-9.636,12.1,12.1,0,0,0-2.393.241,12,12,0,0,0-9.395,14.131l.789,3.922h0l17.367,86.269,18.156,90.191A11.923,11.923,0,0,0,165.352,477.989Z"/>
    <path d="M65.593,317.344A198.684,198.684,0,0,1,85.268,152.582L67.556,134.869a224.234,224.234,0,0,0-11.4,222.41A62.1,62.1,0,0,1,65.593,317.344Z"/>
    <path d="M378.685,275.851a12.089,12.089,0,0,0-2.393-.241,12.013,12.013,0,0,0-11.74,9.636h0L328.24,465.628a12,12,0,1,0,23.528,4.736l18.156-90.191L387.291,293.9h0l.789-3.922a12,12,0,0,0-9.395-14.131Z"/>
    <path d="M389.757,107.34q1.981,1.783,3.915,3.62c.436.413.861.837,1.294,1.254.882.852,1.762,1.706,2.629,2.574.5.505,1,1.019,1.5,1.529.78.8,1.558,1.6,2.324,2.409.52.549,1.033,1.106,1.547,1.662q1.1,1.184,2.173,2.383.776.867,1.539,1.743,1.049,1.2,2.076,2.412.756.892,1.5,1.792c.259.313.526.618.782.932l17.2-17.2c-.78-.938-1.576-1.858-2.369-2.78-.52-.606-1.031-1.222-1.557-1.82-1.024-1.166-2.068-2.308-3.113-3.45-.377-.411-.745-.834-1.125-1.243q-2.151-2.316-4.36-4.564c-.254-.259-.517-.508-.773-.766-1.221-1.23-2.448-2.454-3.695-3.653-.516-.5-1.046-.977-1.567-1.469-1-.942-1.994-1.887-3.007-2.809-.61-.555-1.232-1.092-1.847-1.639-.942-.838-1.881-1.68-2.835-2.5-.661-.568-1.334-1.119-2-1.678-.925-.777-1.847-1.558-2.784-2.319-.7-.567-1.408-1.118-2.112-1.676-.922-.73-1.84-1.464-2.772-2.178-.727-.558-1.465-1.1-2.2-1.649-.924-.691-1.847-1.384-2.781-2.06-.753-.545-1.515-1.075-2.275-1.609-.93-.656-1.86-1.314-2.8-1.954-.775-.528-1.558-1.042-2.338-1.56-.94-.624-1.88-1.248-2.829-1.856-.794-.51-1.6-1.007-2.4-1.506-.949-.592-1.9-1.183-2.856-1.76-.813-.49-1.632-.969-2.451-1.448-.961-.562-1.922-1.123-2.891-1.67-.829-.469-1.664-.927-2.5-1.385-.971-.532-1.943-1.061-2.921-1.578q-1.269-.672-2.55-1.323-1.471-.755-2.954-1.49-1.288-.637-2.589-1.254Q351.5,53.092,350,52.4q-1.31-.6-2.628-1.185-1.507-.669-3.027-1.317-1.327-.566-2.664-1.114-1.527-.627-3.063-1.231-1.346-.528-2.7-1.042-1.543-.584-3.1-1.143c-.908-.328-1.816-.654-2.729-.97q-1.561-.542-3.133-1.056c-.917-.3-1.834-.6-2.755-.895-1.054-.333-2.113-.653-3.173-.971-.924-.277-1.848-.554-2.777-.819-1.065-.3-2.135-.593-3.206-.882-.933-.251-1.866-.5-2.8-.743-1.079-.276-2.164-.536-3.248-.8-.936-.224-1.871-.451-2.811-.663-1.1-.248-2.2-.479-3.3-.711-.936-.2-1.871-.4-2.812-.583-1.112-.219-2.23-.419-3.348-.622-.939-.17-1.875-.346-2.817-.5-1.131-.19-2.267-.36-3.4-.533-.936-.142-1.869-.293-2.808-.424-1.157-.161-2.321-.3-3.483-.444-.923-.115-1.843-.238-2.768-.341-1.2-.134-2.4-.242-3.6-.357-.9-.085-1.8-.182-2.7-.257-1.258-.1-2.522-.183-3.784-.267-.849-.057-1.695-.127-2.546-.174-1.414-.078-2.834-.127-4.253-.18-.7-.026-1.405-.066-2.11-.086q-3.192-.089-6.4-.09c-1.4,0-2.789.009-4.194.038a224.384,224.384,0,0,0-102.3,26.811q-2.748,1.487-5.453,3.055c-.6.349-1.2.715-1.8,1.07-1.2.707-2.392,1.412-3.574,2.141-.7.435-1.4.886-2.1,1.329-1.065.672-2.13,1.344-3.183,2.034-.738.484-1.465.982-2.2,1.475-1,.674-2,1.348-2.994,2.038-.745.519-1.481,1.05-2.219,1.578-.963.688-1.924,1.377-2.875,2.08-.743.549-1.478,1.107-2.213,1.664-.932.707-1.861,1.416-2.781,2.137q-1.1.861-2.188,1.739-1.359,1.091-2.7,2.2-1.08.9-2.148,1.8-1.329,1.129-2.64,2.279-1.051.921-2.094,1.853-1.3,1.171-2.587,2.365c-.679.629-1.357,1.258-2.028,1.895-.856.812-1.7,1.635-2.543,2.461-.652.639-1.307,1.277-1.952,1.924-.848.85-1.682,1.714-2.516,2.578-.619.641-1.242,1.278-1.854,1.926-.85.9-1.684,1.819-2.52,2.734-.575.63-1.156,1.254-1.723,1.89-.878.984-1.736,1.985-2.6,2.984-.505.586-1.019,1.165-1.517,1.756-1.021,1.211-2.02,2.44-3.015,3.672-.318.395-.647.781-.962,1.178q-1.91,2.4-3.749,4.845l17.479,17.48c.3-.409.607-.8.906-1.209q.865-1.173,1.746-2.329.986-1.3,1.989-2.574.9-1.151,1.82-2.286,1.012-1.251,2.044-2.483c.626-.75,1.255-1.5,1.891-2.239.693-.806,1.4-1.6,2.1-2.4.65-.733,1.3-1.465,1.96-2.187.712-.779,1.433-1.547,2.155-2.313.671-.713,1.342-1.427,2.022-2.129.732-.754,1.474-1.495,2.215-2.236.692-.692,1.38-1.385,2.08-2.066.751-.729,1.515-1.444,2.276-2.161.709-.668,1.414-1.34,2.132-2,.773-.707,1.559-1.4,2.342-2.092.724-.642,1.444-1.291,2.176-1.922.8-.691,1.617-1.362,2.428-2.039.731-.61,1.456-1.229,2.194-1.827.849-.688,1.712-1.354,2.57-2.027.719-.564,1.431-1.139,2.157-1.693.97-.739,1.955-1.454,2.936-2.174q1.5-1.1,3.006-2.17c1.236-.874,2.474-1.744,3.729-2.589.739-.5,1.491-.971,2.236-1.458.926-.605,1.847-1.218,2.782-1.808.794-.5,1.6-.979,2.4-1.468.9-.551,1.8-1.109,2.711-1.645.822-.484,1.654-.948,2.483-1.421.9-.514,1.8-1.035,2.715-1.536.842-.462,1.693-.907,2.542-1.357.911-.484,1.821-.972,2.74-1.442.858-.438,1.724-.86,2.589-1.287.923-.454,1.844-.911,2.774-1.352.871-.413,1.749-.811,2.627-1.211.936-.427,1.872-.854,2.814-1.266.883-.387,1.771-.76,2.66-1.134.949-.4,1.9-.8,2.855-1.18.893-.359,1.789-.707,2.687-1.053q1.448-.558,2.9-1.1,1.349-.5,2.707-.97,1.471-.516,2.95-1.011,1.358-.453,2.721-.886,1.5-.475,3-.927,1.362-.408,2.729-.8,1.524-.434,3.056-.84c.911-.243,1.823-.485,2.738-.715,1.032-.261,2.069-.507,3.107-.751.912-.215,1.824-.429,2.74-.63,1.052-.232,2.108-.447,3.164-.662.91-.184,1.82-.371,2.733-.543,1.077-.2,2.159-.387,3.241-.572.9-.154,1.8-.313,2.7-.455,1.108-.173,2.221-.326,3.334-.482.885-.123,1.768-.253,2.655-.365,1.149-.144,2.3-.265,3.455-.389.858-.093,1.714-.195,2.575-.276,1.214-.115,2.433-.2,3.651-.3.805-.061,1.608-.135,2.416-.186,1.356-.086,2.717-.143,4.078-.2.675-.029,1.347-.073,2.023-.095q3.058-.1,6.131-.109H256a200.938,200.938,0,0,1,80.579,16.9q5.406,2.376,10.66,5.073,2.429,1.246,4.82,2.564c.531.292,1.054.6,1.582.893,1.062.6,2.122,1.193,3.173,1.809.619.362,1.231.736,1.846,1.105.951.571,1.9,1.144,2.842,1.731.642.4,1.279.81,1.917,1.217q1.358.869,2.7,1.755.964.639,1.921,1.29,1.323.9,2.633,1.818.944.663,1.881,1.334,1.316.948,2.614,1.918c.6.448,1.2.895,1.8,1.35.9.682,1.781,1.376,2.665,2.073.551.435,1.107.866,1.654,1.306.974.785,1.936,1.586,2.9,2.388.441.37.889.732,1.328,1.105q2.09,1.779,4.134,3.611C389.687,107.274,389.721,107.308,389.757,107.34Z"/>
    <path d="M420.738,142.576a200.347,200.347,0,0,1,25.669,174.768,62.112,62.112,0,0,1,9.437,39.933A224.821,224.821,0,0,0,438.115,125.2Z"/>
    <path d="M432.37,325.071a46.319,46.319,0,0,0-29.627-19.9L401.4,304.9,369.822,461.758l1.345.27a46.626,46.626,0,0,0,54.912-36.508l13.172-65.433A46.32,46.32,0,0,0,432.37,325.071Z"/>
</svg>