<svg xmlns="http://www.w3.org/2000/svg" viewBox="0 0 100 105">
    <circle cx="44.545" cy="16.573" r="7.932"/>
    <path d="M56.9,41.248c-0.495-0.451-1.42-0.995-1.42-0.995s-0.815-0.866-1.262,0.799l-8.036,11.451  c-1.108,1.582-3.814,0.045-3.814,0.045L24.99,77.367c-0.433,0.617-0.133,1.572,0.668,2.133l3.394,2.377  c-0.07-1.732,1.146-3.292,2.9-3.602c0.832-0.146,1.647,0.014,2.331,0.397l14.935-21.328c0,0-2.279-1.678-1.042-3.446l7.872-11.274  C56.048,42.625,57.396,41.698,56.9,41.248z"/>
    <circle cx="32.748" cy="82.43" r="3.355"/>
    <path d="M78.354,49.15l-15.52-24.607c-2.253-3.571-6.973-4.641-10.546-2.388c-3.572,2.252-4.641,6.974-2.388,10.546l1.44,2.284  L48.223,46.8c-0.461,1.75,0.583,3.543,2.333,4.004c0.28,0.073,0.561,0.109,0.838,0.109c1.452,0,2.778-0.973,3.166-2.442l1.559-5.91  l7.076,11.219l-4.19,8.998c-0.471,1.011-0.715,2.113-0.715,3.228V83.87c0,4.223,3.423,7.646,7.646,7.646  c4.223,0,7.646-3.423,7.646-7.646V67.699l5.236-11.242C79.915,54.101,79.74,51.349,78.354,49.15z"/>
</svg>